name analog
datacolumns 19
datarows 27
range 0.341 0.354
endheader
time	ground_force_vx	ground_force_vy	ground_force_vz	ground_force_px	ground_force_py	ground_force_pz	l_ground_force_vx	l_ground_force_vy	l_ground_force_vz	l_ground_force_px	l_ground_force_py	l_ground_force_pz	ground_torque_x	ground_torque_y	ground_torque_z	l_ground_torque_x	l_ground_torque_y	l_ground_torque_z
0.341	-0.0	-0.0	-0.0	5.757508277893066	73.88224792480469	-583.1544799804688	25.50604057312012	-73.65277862548828	-606.9013061523438	-0.0	-0.0	-0.0	-0.0	-0.0	-0.0	87134.7578125	6987.1708984375	-6770.40625
0.3415	-0.0	-0.0	-0.0	5.805262088775635	76.06201934814453	-589.892333984375	24.553565979003903	-76.12543487548828	-614.0366821289062	-0.0	-0.0	-0.0	-0.0	-0.0	-0.0	87931.0078125	8198.302734375	-6960.0009765625
0.342	-0.0	-0.0	-0.0	5.8878936767578125	76.97366333007812	-595.37939453125	23.597068786621094	-78.1261215209961	-621.9595336914062	-0.0	-0.0	-0.0	-0.0	-0.0	-0.0	88179.2265625	9045.2509765625	-7393.162109375
0.3425	-0.0	-0.0	-0.0	6.155525207519531	79.33821868896484	-601.489501953125	22.236026763916016	-80.82523345947266	-628.951171875	-0.0	-0.0	-0.0	-0.0	-0.0	-0.0	88772.859375	10056.974609375	-7812.859375
0.343	-0.0	-0.0	-0.0	6.10797643661499	81.16205596923828	-608.8822021484375	20.7563419342041	-83.20972442626953	-635.1835327148438	-0.0	-0.0	-0.0	-0.0	-0.0	-0.0	89078.2265625	11160.005859375	-8163.9853515625
0.3435	-0.0	-0.0	-0.0	5.694228172302246	83.6573486328125	-615.4876098632812	19.88027000427246	-85.8201904296875	-639.1427001953125	-0.0	-0.0	-0.0	-0.0	-0.0	-0.0	89555.421875	12366.595703125	-8431.7646484375
0.34400000000000003	-0.0	-0.0	-0.0	5.331665992736816	85.73274993896484	-621.3265380859375	18.64889144897461	-88.7734603881836	-646.2796630859375	-0.0	-0.0	-0.0	-0.0	-0.0	-0.0	89848.1875	13631.3466796875	-8855.732421875
0.34450000000000003	-0.0	-0.0	-0.0	4.8173675537109375	88.19195556640625	-628.2239379882812	17.52504539489746	-91.8349609375	-652.3701171875	-0.0	-0.0	-0.0	-0.0	-0.0	-0.0	90359.4609375	14915.240234375	-9130.8818359375
0.34500000000000003	-0.0	-0.0	-0.0	4.329174518585205	91.0491714477539	-633.9580078125	16.6086483001709	-95.29910278320312	-659.2367553710938	-0.0	-0.0	-0.0	-0.0	-0.0	-0.0	90511.8046875	15861.580078125	-9349.9697265625
0.34550000000000003	-0.0	-0.0	-0.0	4.124821662902832	93.0356674194336	-638.9024658203125	15.61309814453125	-98.75312042236328	-665.0933837890625	-0.0	-0.0	-0.0	-0.0	-0.0	-0.0	90707.328125	17094.046875	-9621.689453125
0.34600000000000003	-0.0	-0.0	-0.0	3.420033693313598	95.16567993164062	-646.3367919921875	15.317830085754396	-101.44207000732422	-669.5946655273438	-0.0	-0.0	-0.0	-0.0	-0.0	-0.0	90874.2109375	18506.966796875	-9932.4052734375
0.34650000000000003	-0.0	-0.0	-0.0	2.6763153076171875	97.80142974853516	-652.4238891601562	14.736937522888184	-105.09191131591795	-675.2161865234375	-0.0	-0.0	-0.0	-0.0	-0.0	-0.0	91144.9140625	19342.677734375	-9986.3349609375
0.34700000000000003	-0.0	-0.0	-0.0	2.8799824714660645	101.0312728881836	-657.98974609375	13.858863830566406	-108.034912109375	-677.5459594726562	-0.0	-0.0	-0.0	-0.0	-0.0	-0.0	91045.125	20703.888671875	-10201.9697265625
0.34750000000000003	-0.0	-0.0	-0.0	2.4728269577026367	104.13304138183594	-662.7640991210938	12.854515075683594	-111.05733489990234	-681.38623046875	-0.0	-0.0	-0.0	-0.0	-0.0	-0.0	91055.171875	21955.361328125	-10371.8173828125
0.34800000000000003	-0.0	-0.0	-0.0	2.679707288742065	107.73722076416016	-667.5950317382812	12.201861381530762	-113.8666763305664	-684.4487915039062	-0.0	-0.0	-0.0	-0.0	-0.0	-0.0	90867.875	23231.681640625	-10642.7314453125
0.34850000000000003	-0.0	-0.0	-0.0	3.128753185272217	111.7329330444336	-671.1396484375	11.169500350952148	-117.05433654785156	-686.2733764648438	-0.0	-0.0	-0.0	-0.0	-0.0	-0.0	90838.484375	24145.44921875	-10762.8662109375
0.34900000000000003	-0.0	-0.0	-0.0	2.3871238231658936	115.6570816040039	-676.4249267578125	10.68572998046875	-119.41871643066406	-688.7965087890625	-0.0	-0.0	-0.0	-0.0	-0.0	-0.0	90559.7890625	25332.908203125	-10790.7802734375
0.34950000000000003	-0.0	-0.0	-0.0	3.0358572006225586	118.21661376953124	-681.840576171875	10.721287727355955	-122.25228881835938	-690.7816162109375	-0.0	-0.0	-0.0	-0.0	-0.0	-0.0	90615.890625	26395.6484375	-10864.3681640625
0.35000000000000003	-0.0	-0.0	-0.0	3.7034664154052734	121.46307373046876	-685.2646484375	10.371831893920898	-124.60164642333984	-692.556640625	-0.0	-0.0	-0.0	-0.0	-0.0	-0.0	89969.953125	27347.4765625	-10949.8935546875
0.35050000000000003	-0.0	-0.0	-0.0	4.236415863037109	125.23038482666016	-691.3453979492188	10.153865814208984	-127.35987854003906	-693.3347778320312	-0.0	-0.0	-0.0	-0.0	-0.0	-0.0	89843.765625	28503.73046875	-10886.6416015625
0.35100000000000003	-0.0	-0.0	-0.0	5.239643096923828	127.98733520507812	-693.017578125	9.976544380187988	-130.64138793945312	-695.187744140625	-0.0	-0.0	-0.0	-0.0	-0.0	-0.0	89493.2734375	29590.630859375	-10846.619140625
0.35150000000000003	-0.0	-0.0	-0.0	5.423424243927002	131.66744995117188	-699.202880859375	9.64234733581543	-133.10736083984375	-695.6167602539062	-0.0	-0.0	-0.0	-0.0	-0.0	-0.0	88924.0625	30337.3203125	-10779.0634765625
0.352	-0.0	-0.0	-0.0	5.933215141296387	135.00778198242188	-702.6486206054688	9.219614028930664	-136.46328735351562	-695.9651489257812	-0.0	-0.0	-0.0	-0.0	-0.0	-0.0	88282.328125	31141.80859375	-10841.7021484375
0.3525	-0.0	-0.0	-0.0	5.8878936767578125	138.73086547851562	-704.5020751953125	9.205270767211914	-139.75155639648438	-695.7538452148438	-0.0	-0.0	-0.0	-0.0	-0.0	-0.0	87819.265625	32036.556640625	-10662.4873046875
0.353	-0.0	-0.0	-0.0	6.134446620941162	142.14096069335938	-706.8003540039062	8.42752456665039	-142.42164611816406	-697.3372802734375	-0.0	-0.0	-0.0	-0.0	-0.0	-0.0	87374.0234375	33250.58203125	-10807.11328125
0.3535	-0.0	-0.0	-0.0	5.865067005157471	145.5962677001953	-709.3605346679688	8.255681037902832	-145.62176513671875	-698.035888671875	-0.0	-0.0	-0.0	-0.0	-0.0	-0.0	87338.1171875	34055.578125	-10732.88671875
0.354	-0.0	-0.0	-0.0	5.753830909729004	149.5391387939453	-711.6575927734375	8.255477905273438	-147.72604370117188	-697.52294921875	-0.0	-0.0	-0.0	-0.0	-0.0	-0.0	86972.5546875	35016.9765625	-10539.6884765625
